<svg id="Layer_1" enable-background="new 0 0 66 66" height="512" viewBox="0 0 66 66" width="512" xmlns="http://www.w3.org/2000/svg"><g fill="none" stroke="#674df0" stroke-miterlimit="10" stroke-width="2"><g><path d="m49.1 37.9c.5-1.5.7-3.1.7-4.8s-.3-3.4-.7-5c-.5-1.7-1.2-3.2-2.2-4.6-2.1-3.1-5.3-5.5-9-6.6-1.6-.5-3.2-.7-5-.7-1.7 0-3.3.2-4.8.7-3.7 1.1-7 3.5-9.1 6.6-1 1.4-1.7 2.9-2.2 4.5s-.8 3.3-.8 5.1c0 1.7.2 3.4.7 4.9 1.6 5.4 5.9 9.7 11.3 11.3 1.5.5 3.2.7 4.9.7 1.8 0 3.5-.3 5.1-.8"/><path d="m39.2 42.7c-.6 1.8-1.3 3.4-2.1 4.6"/><path d="m40.5 33.1c0 3.2-.4 6.2-1.1 8.7-.1.3-.2.6-.3.9-.6 1.8-1.3 3.4-2.1 4.6-1.2 1.7-2.6 2.7-4.1 2.7-1.5 0-2.8-.9-4-2.5-1-1.3-1.8-3.1-2.4-5.2-.1-.2-.1-.3-.2-.5-.7-2.5-1.1-5.5-1.1-8.7 0-3.3.4-6.3 1.2-8.9 1.4-4.8 3.8-8 6.5-8 1.5 0 2.9.9 4 2.6.9 1.2 1.6 2.7 2.2 4.6.1.3.2.6.3.9.7 2.5 1.1 5.5 1.1 8.8z"/><path d="m16 33.1h33.8"/><path d="m19 23.5c9.3 1.2 18.6 1.2 27.9 0"/><path d="m46.8 42.5c-9.3-1.2-18.6-1.2-27.9 0"/></g><g><path d=""/><path d="m37.9 16.9 6.9-13.9c.6-1 2-1.2 2.9-.4.3.4.5.8.5 1.3 0 .2-.1.5-.1.7-5.3 13.4-.8 18.7 13.2 13.2.7-.3 1.5-.1 2 .4l.2.2c.8.8.7 2.2-.3 2.9l-14 6.9"/><ellipse cx="54.9" cy="11.1" rx="4" ry="3.9"/></g><g><path d="m16.7 38-13.8 6.7c-1 .6-1.2 2-.3 2.9.4.4.8.5 1.3.5.2 0 .5 0 .7-.1 13.4-5.3 18.8-.8 13.3 13.2-.3.7-.1 1.5.4 2l.2.2c.8.8 2.2.7 2.9-.4l6.6-13.7"/><ellipse cx="11.1" cy="54.9" rx="4" ry="3.9"/></g><g><path d="m16.7 28-13.8-6.7c-1-.6-1.2-2-.3-2.9.4-.4.8-.5 1.3-.5.2 0 .5 0 .7.1 13.4 5.3 18.8.8 13.3-13.2-.3-.7-.1-1.5.4-2l.2-.2c.8-.8 2.2-.7 2.9.4l6.9 13.9"/><ellipse cx="11.1" cy="11.1" rx="4" ry="3.9"/></g><g><path d="m39.2 42.7c-.6 1.8-1.3 3.4-2.1 4.6"/><path d="m63.5 47.6-.2.2c-.5.5-1.3.7-2 .4-14-5.5-18.5-.2-13.2 13.2.1.2.1.5.1.7 0 .5-.2.9-.5 1.3-.8.8-2.2.7-2.9-.4l-6.8-13.7c5.4-1.7 9.6-6 11.2-11.4l14 6.8c.9.7 1.1 2.1.3 2.9z"/><ellipse cx="54.9" cy="54.9" rx="4" ry="3.9"/></g></g></svg>