<?xml version="1.0" encoding="UTF-8"?>
<svg xmlns="http://www.w3.org/2000/svg" xmlns:xlink="http://www.w3.org/1999/xlink" version="1.1" id="Capa_1" x="0px" y="0px" viewBox="0 0 512 512" style="enable-background:new 0 0 512 512;" xml:space="preserve" width="512" height="512">
<g>
	<path style="fill:none;stroke:#674df0;stroke-width:15;stroke-linecap:round;stroke-linejoin:round;stroke-miterlimit:10;" d="&#10;&#9;&#9;M458.91,7.5h28.71c9.32,0,16.88,7.56,16.88,16.88v246.01c0,9.32-7.56,16.88-16.88,16.88h-16.88c-4.67,0-8.45,3.78-8.45,8.44v28.76&#10;&#9;&#9;c0,4.18-3.39,7.58-7.58,7.58c-1.79,0-3.52-0.64-4.89-1.79l-48.56-41c-1.52-1.28-3.45-1.99-5.45-1.99h-20.79"/>
	
		<line style="fill:none;stroke:#674df0;stroke-width:15;stroke-linecap:round;stroke-linejoin:round;stroke-miterlimit:10;" x1="139.55" y1="177.57" x2="139.55" y2="130.81"/>
	<path style="fill:none;stroke:#674df0;stroke-width:15;stroke-linecap:round;stroke-linejoin:round;stroke-miterlimit:10;" d="&#10;&#9;&#9;M139.55,95.81V24.38c0-9.32,7.56-16.88,16.88-16.88h267.48"/>
	<path style="fill:none;stroke:#674df0;stroke-width:15;stroke-linecap:round;stroke-linejoin:round;stroke-miterlimit:10;" d="&#10;&#9;&#9;M329.48,459.73h26.09c9.32,0,16.88-7.56,16.88-16.89V196.83c0-9.32-7.56-16.88-16.88-16.88H24.38c-9.32,0-16.88,7.56-16.88,16.88&#10;&#9;&#9;v56.8"/>
	<path style="fill:none;stroke:#674df0;stroke-width:15;stroke-linecap:round;stroke-linejoin:round;stroke-miterlimit:10;" d="&#10;&#9;&#9;M7.5,288.63v154.21c0,9.33,7.56,16.89,16.88,16.89h16.88c4.66,0,8.44,3.77,8.44,8.44v28.75c0,4.19,3.4,7.58,7.58,7.58&#10;&#9;&#9;c1.79,0,3.53-0.63,4.89-1.79l48.57-40.99c1.52-1.29,3.45-1.99,5.44-1.99h178.3"/>
	
		<line style="fill:none;stroke:#674df0;stroke-width:15;stroke-linecap:round;stroke-linejoin:round;stroke-miterlimit:10;" x1="189.972" y1="337.073" x2="189.972" y2="218.673"/>
	<path style="fill:none;stroke:#674df0;stroke-width:15;stroke-linecap:round;stroke-linejoin:round;stroke-miterlimit:10;" d="&#10;&#9;&#9;M209.55,358.65c0,10.81-8.77,19.57-19.58,19.57s-19.57-8.76-19.57-19.57c0-10.82,8.76-19.58,19.57-19.58&#10;&#9;&#9;S209.55,347.83,209.55,358.65z"/>
	<path style="fill:none;stroke:#674df0;stroke-width:15;stroke-linecap:round;stroke-linejoin:round;stroke-miterlimit:10;" d="&#10;&#9;&#9;M240.16,394.9v1.21c0,9.17-7.51,16.68-16.68,16.68h-67.01c-9.18,0-16.68-7.51-16.68-16.68v-1.21c0-9.18,7.5-16.68,16.68-16.68&#10;&#9;&#9;h67.01C232.65,378.22,240.16,385.72,240.16,394.9z"/>
	<path style="fill:none;stroke:#674df0;stroke-width:15;stroke-linecap:round;stroke-linejoin:round;stroke-miterlimit:10;" d="&#10;&#9;&#9;M151.24,302.16v5.13c0,19.68-16.22,35.57-36.02,35.02c-19.09-0.52-34.06-16.66-34.06-35.75v-4.4c0-2.13,1.72-3.85,3.85-3.85h62.38&#10;&#9;&#9;C149.51,298.31,151.24,300.03,151.24,302.16z"/>
	<path style="fill:none;stroke:#674df0;stroke-width:15;stroke-linecap:round;stroke-linejoin:round;stroke-miterlimit:10;" d="&#10;&#9;&#9;M298.78,302.16v5.13c0,19.68-16.22,35.57-36.02,35.02c-19.08-0.52-34.05-16.66-34.05-35.75v-4.4c0-2.13,1.72-3.85,3.85-3.85h62.38&#10;&#9;&#9;C297.06,298.31,298.78,300.03,298.78,302.16z"/>
	<path style="fill:none;stroke:#674df0;stroke-width:15;stroke-linecap:round;stroke-linejoin:round;stroke-miterlimit:10;" d="&#10;&#9;&#9;M263.746,296.309l-0.126-26.732c-0.012-3.58-1.492-7.025-4.156-9.417c-39.503-35.463-99.557-35.469-139.066-0.017&#10;&#9;&#9;c-2.676,2.401-4.156,5.864-4.156,9.46v26.706"/>
	
		<line style="fill:none;stroke:#674df0;stroke-width:15;stroke-linecap:round;stroke-linejoin:round;stroke-miterlimit:10;" x1="408.961" y1="60.211" x2="458.912" y2="60.211"/>
	
		<line style="fill:none;stroke:#674df0;stroke-width:15;stroke-linecap:round;stroke-linejoin:round;stroke-miterlimit:10;" x1="185.376" y1="60.211" x2="373.961" y2="60.211"/>
	
		<line style="fill:none;stroke:#674df0;stroke-width:15;stroke-linecap:round;stroke-linejoin:round;stroke-miterlimit:10;" x1="280.942" y1="100.211" x2="403.426" y2="100.211"/>
	
		<line style="fill:none;stroke:#674df0;stroke-width:15;stroke-linecap:round;stroke-linejoin:round;stroke-miterlimit:10;" x1="185.376" y1="100.211" x2="245.942" y2="100.211"/>
	
		<line style="fill:none;stroke:#674df0;stroke-width:15;stroke-linecap:round;stroke-linejoin:round;stroke-miterlimit:10;" x1="357.448" y1="140.211" x2="458.912" y2="140.211"/>
	
		<line style="fill:none;stroke:#674df0;stroke-width:15;stroke-linecap:round;stroke-linejoin:round;stroke-miterlimit:10;" x1="355.567" y1="179.953" x2="418.912" y2="179.953"/>
	
		<line style="fill:none;stroke:#674df0;stroke-width:15;stroke-linecap:round;stroke-linejoin:round;stroke-miterlimit:10;" x1="373.448" y1="220.211" x2="458.912" y2="220.211"/>
	
		<line style="fill:none;stroke:#674df0;stroke-width:15;stroke-linecap:round;stroke-linejoin:round;stroke-miterlimit:10;" x1="185.376" y1="140.211" x2="322.448" y2="140.211"/>
</g>















</svg>
