<?xml version="1.0" encoding="UTF-8" standalone="no"?>
<!-- Created with Inkscape (http://www.inkscape.org/) -->

<svg
   version="1.1"
   id="svg6954"
   xml:space="preserve"
   width="682.66669"
   height="682.66669"
   viewBox="0 0 682.66669 682.66669"
   xmlns="http://www.w3.org/2000/svg"
   xmlns:svg="http://www.w3.org/2000/svg"><defs
     id="defs6958"><clipPath
       clipPathUnits="userSpaceOnUse"
       id="clipPath6968"><path
         d="M 0,512 H 512 V 0 H 0 Z"
         id="path6966" /></clipPath></defs><g
     id="g6960"
     transform="matrix(1.3333333,0,0,-1.3333333,0,682.66667)"><g
       id="g6962"><g
         id="g6964"
         clip-path="url(#clipPath6968)"><g
           id="g6970"
           transform="translate(104.2773,153.1523)"><path
             d="m 0,0 c -38.845,0 -70.335,31.49 -70.335,70.335 v 0.001 c 0,38.845 31.49,70.335 70.335,70.335 h 339.639"
             style="fill:none;stroke:#674df0;stroke-width:15;stroke-linecap:round;stroke-linejoin:round;stroke-miterlimit:10;stroke-dasharray:none;stroke-opacity:1"
             id="path6972" /></g><g
           id="g6974"
           transform="translate(201,184.8828)"><path
             d="m 0,0 h 235.917 c 8.762,0 15.865,-7.104 15.865,-15.865 0,-8.763 -7.103,-15.865 -15.865,-15.865"
             style="fill:none;stroke:#674df0;stroke-width:15;stroke-linecap:round;stroke-linejoin:round;stroke-miterlimit:10;stroke-dasharray:none;stroke-opacity:1"
             id="path6976" /></g><g
           id="g6978"
           transform="translate(436.9165,262.0928)"><path
             d="m 0,0 h -332.639 c -21.321,0 -38.605,-17.284 -38.605,-38.605 0,-21.321 17.284,-38.605 38.605,-38.605 h 61.722"
             style="fill:none;stroke:#674df0;stroke-width:15;stroke-linecap:round;stroke-linejoin:round;stroke-miterlimit:10;stroke-dasharray:none;stroke-opacity:1"
             id="path6980" /></g><g
           id="g6982"
           transform="translate(430.5693,259.4951)"><path
             d="M 0,0 C -9.55,-23.056 -9.55,-48.959 0,-72.015"
             style="fill:none;stroke:#674df0;stroke-width:15;stroke-linecap:round;stroke-linejoin:round;stroke-miterlimit:10;stroke-dasharray:none;stroke-opacity:1"
             id="path6984" /></g><g
           id="g6986"
           transform="translate(457.5933,119.0566)"><path
             d="M 0,0 C -9.549,-23.056 -9.549,-48.959 0,-72.015"
             style="fill:none;stroke:#674df0;stroke-width:15;stroke-linecap:round;stroke-linejoin:round;stroke-miterlimit:10;stroke-dasharray:none;stroke-opacity:1"
             id="path6988" /></g><g
           id="g6990"
           transform="translate(139.1982,261.5645)"><path
             d="m 0,0 v -48.653 l 22.984,9 22.984,-9 V 0"
             style="fill:none;stroke:#674df0;stroke-width:15;stroke-linecap:round;stroke-linejoin:round;stroke-miterlimit:10;stroke-dasharray:none;stroke-opacity:1"
             id="path6992" /></g><g
           id="g6994"
           transform="translate(409,44.2119)"><path
             d="m 0,0 h 54.358 c 8.763,0 15.866,-7.104 15.866,-15.865 0,-8.763 -7.103,-15.865 -15.866,-15.865 h -385.523 c -38.845,0 -70.335,31.49 -70.335,70.334 v 10e-4 c 0,38.845 31.49,70.335 70.335,70.335 H 54.358 c 8.763,0 15.866,-7.103 15.866,-15.865 0,-8.762 -7.103,-15.865 -15.866,-15.865 h -385.523 c -21.321,0 -38.605,-17.284 -38.605,-38.606 C -369.77,17.284 -352.486,0 -331.165,0 H -35"
             style="fill:none;stroke:#674df0;stroke-width:15;stroke-linecap:round;stroke-linejoin:round;stroke-miterlimit:10;stroke-dasharray:none;stroke-opacity:1"
             id="path6996" /></g><g
           id="g6998"
           transform="translate(321.8696,120.5332)"><path
             d="m 0,0 v -48.653 l 22.984,9 22.984,-9 V 0"
             style="fill:none;stroke:#674df0;stroke-width:15;stroke-linecap:round;stroke-linejoin:round;stroke-miterlimit:10;stroke-dasharray:none;stroke-opacity:1"
             id="path7000" /></g><g
           id="g7002"
           transform="translate(179.8271,479.4883)"><path
             d="m 0,0 52.499,18.174 c 7.149,2.475 14.922,2.475 22.072,0 L 285.428,-54.82 c 7.402,-2.563 7.402,-13.032 0,-15.594 L 203.229,-98.87"
             style="fill:none;stroke:#674df0;stroke-width:15;stroke-linecap:round;stroke-linejoin:round;stroke-miterlimit:10;stroke-dasharray:none;stroke-opacity:1"
             id="path7004" /></g><g
           id="g7006"
           transform="translate(103.1465,380.7988)"><path
             d="m 0,0 -81.678,28.275 c -7.402,2.563 -7.402,13.032 0,15.594 l 124.676,43.16"
             style="fill:none;stroke:#674df0;stroke-width:15;stroke-linecap:round;stroke-linejoin:round;stroke-miterlimit:10;stroke-dasharray:none;stroke-opacity:1"
             id="path7008" /></g><g
           id="g7010"
           transform="translate(470.8066,415.4873)"><path
             d="M 0,0 V -58.657"
             style="fill:none;stroke:#674df0;stroke-width:15;stroke-linecap:round;stroke-linejoin:round;stroke-miterlimit:10;stroke-dasharray:none;stroke-opacity:1"
             id="path7012" /></g><g
           id="g7014"
           transform="translate(456.6079,315.8711)"><path
             d="m 0,0 -18.463,-45.51 c -3.679,-9.068 2.93,-19.006 12.639,-19.006 h 40.045 c 9.709,0 16.318,9.938 12.639,19.006 L 28.421,-0.059"
             style="fill:none;stroke:#674df0;stroke-width:15;stroke-linecap:round;stroke-linejoin:round;stroke-miterlimit:10;stroke-dasharray:none;stroke-opacity:1"
             id="path7016" /></g><g
           id="g7018"
           transform="translate(493.5,333.9229)"><path
             d="m 0,0 c 0,12.651 -10.16,22.907 -22.693,22.907 -12.534,0 -22.694,-10.256 -22.694,-22.907 0,-12.65 10.16,-22.906 22.694,-22.906 C -10.16,-22.906 0,-12.65 0,0 Z"
             style="fill:none;stroke:#674df0;stroke-width:15;stroke-linecap:round;stroke-linejoin:round;stroke-miterlimit:10;stroke-dasharray:none;stroke-opacity:1"
             id="path7020" /></g><g
           id="g7022"
           transform="translate(104.0093,294.7939)"><path
             d="m 0,0 v 98.484 c 0,5.445 3.901,10.108 9.26,11.069 86.042,15.429 174.143,15.429 260.184,0 h 10e-4 c 5.359,-0.961 9.26,-5.624 9.26,-11.069 V 0"
             style="fill:none;stroke:#674df0;stroke-width:15;stroke-linecap:round;stroke-linejoin:round;stroke-miterlimit:10;stroke-dasharray:none;stroke-opacity:1"
             id="path7024" /></g><g
           id="g7026"
           transform="translate(329,334.6611)"><path
             d="M 0,0 H 53.714"
             style="fill:none;stroke:#674df0;stroke-width:15;stroke-linecap:round;stroke-linejoin:round;stroke-miterlimit:10;stroke-dasharray:none;stroke-opacity:1"
             id="path7028" /></g><g
           id="g7030"
           transform="translate(104.0093,334.6611)"><path
             d="M 0,0 H 189.991"
             style="fill:none;stroke:#674df0;stroke-width:15;stroke-linecap:round;stroke-linejoin:round;stroke-miterlimit:10;stroke-dasharray:none;stroke-opacity:1"
             id="path7032" /></g></g></g></g></svg>
