<svg id="Layer_1" viewBox="0 0 512 512" xmlns="http://www.w3.org/2000/svg" data-name="Layer 1"><g fill-rule="evenodd"><path d="m204.3 258.578a4.73 4.73 0 0 1 6.462-1.722c2.749 1.635 5.564 3.214 8.336 4.816q-8.928-33.894-17.855-67.788l-67.643 18.375c2.707 1.565 5.555 3.114 8.206 4.746a4.733 4.733 0 0 1 1.846 6.531l-51.588 89.264 40.363 70.155zm161.9-69.539q-8.757 33.953-17.516 67.905l-67.764-18.037 8.324-4.867a4.723 4.723 0 0 0 1.685-6.462l-72.488-123.963 81.129-.056 51.846 88.664a4.722 4.722 0 0 0 6.462 1.685l8.327-4.869zm-115.272-11.15-30.308 52.444-11.37-43.186a4.744 4.744 0 0 0 -5.89-3.658l-43.38 11.783 50.261-86.972 40.692 69.588zm-9.775 139.854q-15.965 15.9-32.019 31.68a4.727 4.727 0 0 0 .019 6.684l31.906 31.662h-100.5l40.468-70.026zm135.633 70.025 40.532-70.025q-71.808 0-143.625.115a4.74 4.74 0 0 1 -4.74-4.74v-9.738l-49.753 49.376 49.757 49.376v-9.624a4.736 4.736 0 0 1 4.74-4.753q51.546 0 103.093.013zm52.674-77.41a4.76 4.76 0 0 1 -.009 5.3l-45.851 79.22a4.728 4.728 0 0 1 -4.092 2.36l-101.073.01v16.246a4.747 4.747 0 0 1 -8.325 3.1l-19.5-19.347h-118.128a4.74 4.74 0 0 1 -4.263-2.666l-45.849-79.208a4.733 4.733 0 0 1 .221-5.088l50.5-87.391-14.079-8.136a4.735 4.735 0 0 1 1.132-8.656l26.875-7.311 59.1-102.262a4.727 4.727 0 0 1 4.343-2.353l91.594-.406a4.722 4.722 0 0 1 4.092 2.333c17.215 28.921 34.036 58.207 51.031 87.271l14.036-8.207a4.732 4.732 0 0 1 6.923 5.392l-6.927 26.856 58.251 102.943zm-91.356-2.1h79.309l-49.6-87.658-11.171 43.3a4.72 4.72 0 0 1 -5.74 3.407l-43.5-11.569 30.711 52.52zm-59.671 0-.014-16.245a4.732 4.732 0 0 0 -8.059-3.351q-9.855 9.779-19.692 19.6h-64.156l23.61-40.855 14.048 8.119a4.735 4.735 0 0 0 6.967-5.282l-7.092-26.927 32.381-56.033 23.969 40.99-13.822 8.082a4.735 4.735 0 0 0 .964 8.776l26.9 7.161 32.728 55.969z"/><path d="m256 16a240 240 0 1 0 169.705 70.3 239.335 239.335 0 0 0 -169.705-70.3zm161.853 78.147a228.9 228.9 0 1 1 -161.853-67.04 228.266 228.266 0 0 1 161.853 67.04z"/></g></svg>