<?xml version="1.0"?>
<svg xmlns="http://www.w3.org/2000/svg" id="Icons" fill="#674df0" viewBox="0 0 60 60"><title/><path d="M57,20.033V12.5a3.5,3.5,0,0,0-5.169-3.077,3.5,3.5,0,0,0-6.661,0,3.64,3.64,0,0,0-4.146.6,3.486,3.486,0,0,0-.833,1.389,17.026,17.026,0,0,0-2.712-1.677,5.972,5.972,0,0,0-.071-8.019A5.3,5.3,0,0,0,30,1.321a5.305,5.305,0,0,0-7.406.391,5.974,5.974,0,0,0-.074,8.021,17.078,17.078,0,0,0-2.717,1.66A3.481,3.481,0,0,0,14.83,9.425,3.5,3.5,0,0,0,8.171,9.42,3.507,3.507,0,0,0,3,12.5v7.532A3.5,3.5,0,0,0,0,23.5V35.89a4.015,4.015,0,0,0,.961,2.6L5,43.2V58a2,2,0,0,0,2,2H18a2,2,0,0,0,2-2V43.2l2.528-2.954c.347.171.7.34,1.055.487.026.012.052.019.078.029a16.818,16.818,0,0,0,13.811-.516L40,43.2V58a2,2,0,0,0,2,2H53a2,2,0,0,0,2-2V43.2l4.043-4.713A4.015,4.015,0,0,0,60,35.89V23.5a3.5,3.5,0,0,0-3-3.467Zm-4.562-8.6A1.5,1.5,0,0,1,55,12.5v7.879a3.694,3.694,0,0,0-2,3.281V24H52V12.5A1.511,1.511,0,0,1,52.438,11.437ZM47,10.5a1.5,1.5,0,0,1,3,0V24H47V10.5Zm-4.562.937A1.5,1.5,0,0,1,45,12.5V17c-.14-.264-.281-.527-.436-.783A17.038,17.038,0,0,0,42,12.962V12.5A1.511,1.511,0,0,1,42.438,11.437ZM40,26l.45,0-3.883,8.526A.821.821,0,0,1,35,34.18V29a3,3,0,0,0-3-3H31a3,3,0,0,1,0-6h4a3.015,3.015,0,0,0,3-3,3,3,0,0,0-3-3H33.471l2.567-2.721a15.154,15.154,0,0,1,6.548,5.565l-1.017,2.529A.994.994,0,0,1,40.65,20H40a3.015,3.015,0,0,0-3,3A3,3,0,0,0,40,26ZM24.049,3.084a3.313,3.313,0,0,1,4.9,0l.32.339a1.031,1.031,0,0,0,1.454,0l.322-.341a3.386,3.386,0,0,1,4.9,0,3.951,3.951,0,0,1,0,5.366h0l-.869.921-.018.02-4.616,4.894-.011.011L30,14.765,24.933,9.393l-.013-.014-.873-.926A3.953,3.953,0,0,1,24.049,3.084Zm.5,32.524A2.807,2.807,0,0,0,23,38.12v.137a15.105,15.105,0,0,1-6.06-5.9L17.963,30.3a2.356,2.356,0,0,1,3.324-.961l2.253,1.346A3.036,3.036,0,0,1,25,33.26v1.62A.814.814,0,0,1,24.548,35.608ZM18.8,15H21.59a.4.4,0,0,1,.41.41.43.43,0,0,1-.1.268l-3.073,3.573a2.885,2.885,0,0,0-.689,1.869.877.877,0,0,1-.87.88H15.306A14.844,14.844,0,0,1,18.8,15Zm-2.3-4a1.489,1.489,0,0,1,1.063.438A1.509,1.509,0,0,1,18,12.5v.444a16.778,16.778,0,0,0-3,4.032V12.5A1.5,1.5,0,0,1,16.5,11ZM10,10.5a1.5,1.5,0,1,1,3,0V24H10V10.5ZM6.5,11A1.492,1.492,0,0,1,8,12.5V24H7v-.34a3.694,3.694,0,0,0-2-3.281V12.5A1.5,1.5,0,0,1,6.5,11ZM18.472,41.91A2.022,2.022,0,0,0,18,43.2V58H7V43.2a2.028,2.028,0,0,0-.481-1.3L2.481,37.191A2.01,2.01,0,0,1,2,35.89V23.5A1.5,1.5,0,0,1,3.394,22a1.436,1.436,0,0,1,.376.033h0l0,0A1.668,1.668,0,0,1,5,23.66V30a1,1,0,0,0,1,1,2,2,0,0,1,2,2v3a1,1,0,0,0,2,0V33a4.005,4.005,0,0,0-3-3.873V26h6.051a16.845,16.845,0,0,0,1.81,6.694l.008.017a17.105,17.105,0,0,0,5.883,6.534ZM25,39.125V38.12a.815.815,0,0,1,.452-.728A2.807,2.807,0,0,0,27,34.88V33.26a5.049,5.049,0,0,0-2.428-4.288l-2.26-1.35A4.356,4.356,0,0,0,16.175,29.4l-.3.6A14.905,14.905,0,0,1,15,25c0-.336.016-.669.038-1H17.27a2.878,2.878,0,0,0,2.87-2.88.876.876,0,0,1,.208-.567l3.076-3.577A2.435,2.435,0,0,0,24,15.41,2.4,2.4,0,0,0,21.59,13h-.6a15.069,15.069,0,0,1,2.967-1.723l4.959,5.256a1.485,1.485,0,0,0,2.164,0l.5-.531H35a1,1,0,0,1,1,1,.977.977,0,0,1-.307.713A.959.959,0,0,1,35,18H31a5,5,0,1,0,0,10h1a1,1,0,0,1,1,1v5.18a2.821,2.821,0,0,0,5.391,1.164l3.88-8.521A2,2,0,0,0,40.45,24H40a1,1,0,0,1-1-1,.977.977,0,0,1,.307-.713A.959.959,0,0,1,40,22h.65a3.011,3.011,0,0,0,2.778-1.887l.388-.966A14.974,14.974,0,0,1,25,39.125ZM58,35.89a2,2,0,0,1-.479,1.3L53.472,41.91A2.022,2.022,0,0,0,53,43.2V58H42V43.2a2.038,2.038,0,0,0-.48-1.3l-2.272-2.654A16.986,16.986,0,0,0,46.949,26H53v3.127A4.005,4.005,0,0,0,50,33v3a1,1,0,0,0,2,0V33a2,2,0,0,1,2-2,1,1,0,0,0,1-1V23.66a1.668,1.668,0,0,1,1.223-1.626l0,0h0A1.315,1.315,0,0,1,56.587,22,1.5,1.5,0,0,1,58,23.5Z"/></svg>
