<svg id="Layer_1" height="512" viewBox="0 0 50 50" width="512" xmlns="http://www.w3.org/2000/svg"><g><g style="fill:none;stroke:#674df0;stroke-linecap:round;stroke-linejoin:round;stroke-miterlimit:10;stroke-width:1.5"><g><circle cx="26.6" cy="26.6" r="11.2"/><g><path d="m18.4 34.2c2-2.2 4.9-3.5 8.1-3.5s6.1 1.4 8.2 3.5"/><path d="m34.7 18.9c-2 2.2-4.9 3.5-8.2 3.5s-6.1-1.4-8.1-3.5"/></g><g><path d="m26.6 15.4v22.4"/><path d="m37.8 26.6h-22.4"/></g></g><g><path d="m26.2 6.1-1 1c-.4.3-.4.9 0 1.3l1 1c5.7 5.7 15 5.7 20.8 0l1-1c.4-.3.4-.9 0-1.3l-1-1c-5.8-5.8-15.1-5.8-20.8 0z"/><path d="m32.1 6.1c2.8-1.3 6.1-1.3 8.9 0"/><g><path d="m32.4 4.8c.3.7.5 1.5.8 2.2"/><path d="m35.2 4.1c.1.8.2 1.6.3 2.4"/><path d="m38 4.1c-.1.8-.2 1.6-.3 2.4"/><path d="m40.7 4.8c-.2.7-.5 1.5-.7 2.2"/></g><g><path d="m44.1 11.6c-.7-1.1-1.1-2.4-1.1-3.9 0-1.4.4-2.8 1.2-3.9"/><path d="m29 3.8c.7 1.1 1.2 2.4 1.2 3.9 0 1.4-.4 2.8-1.2 3.9"/></g></g><g><circle cx="9.1" cy="40.9" r="7.4"/><circle cx="9.1" cy="40.9" r="3.7"/><path d="m9.1 40.9v-17.5"/><g><path d="m9.1 31.1-3.2-2.1v-4.5l3.2 2.1z"/><path d="m9.1 31.1 3.3-2.1v-4.5l-3.3 2.1z"/></g></g><g><path d="m35.8 44.4-4.9.8c-1.6.2-3-1-3-2.6s1.4-2.8 3-2.6l4.9.8c.8-2.2 2.9-3.9 5.4-3.9 3.2 0 7 2.6 7 5.7s-3.9 5.7-7 5.7c-2.5 0-4.6-1.7-5.4-3.9z"/><path d="m38.8 47.7v-10.3"/></g><circle cx="22.7" cy="43.3" r="2.8"/><path d="m41.4 31.1v-13.7h6.9v5.2h-6.6"/></g><g><g><path d="m9.4 12.4c-2 0-3.6-1.5-3.8-3.5l-.7-7.1h9.1l-.7 7.1c-.2 2-1.9 3.5-3.9 3.5z" style="fill:none;stroke:#674df0;stroke-linecap:round;stroke-linejoin:round;stroke-miterlimit:10;stroke-width:1.5"/><g><path d="m7.8 12s.7 2.1-2 4.6h7.3c-2.6-2.4-2-4.6-2-4.6" style="fill:none;stroke:#674df0;stroke-linecap:round;stroke-linejoin:round;stroke-miterlimit:10;stroke-width:1.5"/></g><g style="fill:none;stroke:#674df0;stroke-linecap:round;stroke-linejoin:round;stroke-miterlimit:10;stroke-width:1.5"><path d="m4.8 16.6h9.3v3h-9.3z"/><path d="m13.9 2.6h3.2s.8 5-4 7"/><path d="m5 2.6h-3.2s-.8 5 4 7"/></g></g></g></g></svg>